<svg width="554" height="540" viewBox="0 0 554 540" fill="none" xmlns="http://www.w3.org/2000/svg">
<g clip-path="url(#clip0_25_2)">
<!-- <rect width="554" height="540" fill="#0C1820"/> -->
<!-- <circle cx="532.5" cy="346.5" r="701.5" fill="url(#paint0_radial_25_2)"/> -->
<g opacity="0.34" filter="url(#filter0_f_25_2)">
<path fill-rule="evenodd" clip-rule="evenodd" d="M402.566 317.737C375.789 360.986 298.28 363.479 228.099 322.959C157.067 281.949 120.44 212.409 146.289 167.638C148.106 164.489 150.185 161.547 152.503 158.812C179.472 120.294 219.027 120.255 254.319 120.221C286.487 120.189 315.112 120.161 327.433 91C335.526 92.4714 339.388 103.874 340.308 109.392C342.147 99.2764 357.78 92.8392 366.976 95.598C363.604 98.0503 357.412 105.53 359.619 115.829C363.911 112.764 373.965 108.472 379.851 115.829C357.936 134.668 373.01 164.466 389.979 198.009C409.514 236.625 431.56 280.204 402.566 317.737Z" fill="#5D9A88"/>
<path fill-rule="evenodd" clip-rule="evenodd" d="M363.443 99.1545C360.621 102.846 358.082 108.653 359.619 115.829C361.488 114.495 364.448 112.928 367.681 112.191C375.841 153.042 339.199 196.469 284.354 210.122C228.306 224.074 174.473 201.648 164.114 160.033C163.029 155.675 162.464 151.279 162.386 146.884C188.606 120.285 223.128 120.251 254.319 120.221C286.487 120.189 315.112 120.161 327.433 91C335.526 92.4714 339.388 103.874 340.308 109.392C341.805 101.155 352.45 95.3569 361.316 94.9771C362.079 96.3403 362.789 97.733 363.443 99.1545Z" fill="#85C0A7"/>
<path fill-rule="evenodd" clip-rule="evenodd" d="M169.508 140.449C187.782 125.799 209.248 121.774 230.526 120.657C231.104 121.399 231.521 122.213 231.757 123.096C233.812 130.764 221.498 140.726 204.253 145.347C187.482 149.84 172.224 147.627 169.508 140.449Z" fill="#D9D9D9" fill-opacity="0.29"/>
<ellipse cx="257.721" cy="153.258" rx="34.1563" ry="15.316" transform="rotate(-15 257.721 153.258)" fill="#A1D0BC"/>
<ellipse cx="209.549" cy="264.506" rx="22" ry="50" fill="#D9D9D9"/>
<ellipse cx="243.549" cy="267.506" rx="22" ry="50" fill="#0C1820" fill-opacity="0.12"/>
<ellipse cx="241.549" cy="267.506" rx="20" ry="50" fill="#D9D9D9"/>
<ellipse cx="8.5" cy="21" rx="8.5" ry="21" transform="matrix(-1 0 0 1 243.549 244.506)" fill="#0C1820"/>
<ellipse cx="8.5" cy="21" rx="8.5" ry="21" transform="matrix(-1 0 0 1 211.549 243.506)" fill="#0D1921"/>
<path d="M365.612 319.193C346.707 348.18 304.488 343.769 288.425 329.679C288.425 329.679 302.549 335.617 327.549 332.006C352.549 328.395 365.612 319.193 365.612 319.193Z" fill="white" fill-opacity="0.38"/>
</g>
<mask id="path-12-outside-1_25_2" maskUnits="userSpaceOnUse" x="136" y="89" width="282" height="264" fill="black">
<rect fill="white" x="136" y="89" width="282" height="264"/>
<path fill-rule="evenodd" clip-rule="evenodd" d="M402.566 317.737C375.789 360.986 298.28 363.479 228.099 322.959C157.067 281.949 120.44 212.409 146.289 167.638C148.106 164.489 150.185 161.547 152.503 158.812C179.472 120.294 219.027 120.255 254.319 120.221C286.487 120.189 315.112 120.161 327.433 91C335.526 92.4714 339.388 103.874 340.308 109.392C342.147 99.2764 357.78 92.8392 366.976 95.598C363.604 98.0503 357.412 105.53 359.619 115.829C363.911 112.764 373.965 108.472 379.851 115.829C357.936 134.668 373.01 164.466 389.979 198.009C409.514 236.625 431.56 280.204 402.566 317.737Z"/>
</mask>
<path fill-rule="evenodd" clip-rule="evenodd" d="M402.566 317.737C375.789 360.986 298.28 363.479 228.099 322.959C157.067 281.949 120.44 212.409 146.289 167.638C148.106 164.489 150.185 161.547 152.503 158.812C179.472 120.294 219.027 120.255 254.319 120.221C286.487 120.189 315.112 120.161 327.433 91C335.526 92.4714 339.388 103.874 340.308 109.392C342.147 99.2764 357.78 92.8392 366.976 95.598C363.604 98.0503 357.412 105.53 359.619 115.829C363.911 112.764 373.965 108.472 379.851 115.829C357.936 134.668 373.01 164.466 389.979 198.009C409.514 236.625 431.56 280.204 402.566 317.737Z" fill="#5D9A88"/>
<path d="M402.566 317.737L401.775 317.126L401.743 317.167L401.716 317.211L402.566 317.737ZM228.099 322.959L228.599 322.093L228.099 322.959ZM146.289 167.638L145.423 167.138H145.423L146.289 167.638ZM152.503 158.812L153.265 159.459L153.295 159.424L153.322 159.386L152.503 158.812ZM254.319 120.221L254.318 119.221L254.319 120.221ZM327.433 91L327.612 90.0161L326.824 89.8728L326.512 90.6108L327.433 91ZM340.308 109.392L339.321 109.556L341.292 109.571L340.308 109.392ZM366.976 95.598L367.564 96.4067L369.196 95.22L367.264 94.6402L366.976 95.598ZM359.619 115.829L358.642 116.039L358.961 117.529L360.201 116.643L359.619 115.829ZM379.851 115.829L380.503 116.588L381.234 115.958L380.631 115.205L379.851 115.829ZM389.979 198.009L390.871 197.557L389.979 198.009ZM401.716 317.211C388.566 338.449 362.879 349.804 331.578 350.762C300.294 351.72 263.553 342.274 228.599 322.093L227.599 323.825C262.826 344.164 299.93 353.732 331.64 352.761C363.333 351.791 389.789 340.274 403.416 318.263L401.716 317.211ZM228.599 322.093C193.221 301.668 166.452 274.159 151.748 246.243C137.037 218.313 134.463 190.121 147.155 168.138L145.423 167.138C132.266 189.926 135.08 218.89 149.979 247.175C164.884 275.474 191.945 303.241 227.599 323.825L228.599 322.093ZM147.155 168.138C148.942 165.042 150.986 162.149 153.265 159.459L151.74 158.166C149.384 160.946 147.271 163.937 145.423 167.138L147.155 168.138ZM153.322 159.386C179.959 121.342 218.97 121.255 254.32 121.221L254.318 119.221C219.085 119.255 178.984 119.246 151.683 158.239L153.322 159.386ZM254.32 121.221C270.363 121.205 285.715 121.198 298.595 117.495C311.558 113.768 322.059 106.288 328.355 91.3892L326.512 90.6108C320.486 104.873 310.514 111.987 298.042 115.573C285.487 119.182 270.443 119.205 254.318 119.221L254.32 121.221ZM327.254 91.9839C330.864 92.6401 333.651 95.5413 335.689 99.1684C337.712 102.771 338.876 106.885 339.321 109.556L341.294 109.228C340.82 106.381 339.593 102.036 337.432 98.1889C335.286 94.3672 332.095 90.8313 327.612 90.0161L327.254 91.9839ZM341.292 109.571C342.129 104.965 346.163 101.033 351.315 98.5692C356.455 96.1107 362.4 95.2692 366.689 96.5558L367.264 94.6402C362.356 93.168 355.887 94.1657 350.452 96.765C345.028 99.359 340.326 103.703 339.324 109.213L341.292 109.571ZM366.388 94.7893C362.819 97.3849 356.324 105.223 358.642 116.039L360.597 115.62C358.501 105.836 364.39 98.7156 367.564 96.4067L366.388 94.7893ZM360.201 116.643C362.255 115.176 365.692 113.419 369.278 112.911C372.826 112.408 376.411 113.13 379.07 116.454L380.631 115.205C377.405 111.172 373.02 110.361 368.997 110.931C365.011 111.496 361.275 113.417 359.038 115.015L360.201 116.643ZM379.199 115.071C373.566 119.913 370.282 125.49 368.828 131.671C367.379 137.833 367.762 144.535 369.358 151.624C372.542 165.769 380.621 181.727 389.086 198.46L390.871 197.557C382.368 180.748 374.426 165.035 371.309 151.185C369.755 144.278 369.418 137.901 370.775 132.129C372.128 126.377 375.178 121.165 380.503 116.588L379.199 115.071ZM389.086 198.46C398.868 217.795 409.195 238.224 413.492 258.487C417.778 278.696 416.046 298.652 401.775 317.126L403.357 318.348C418.08 299.29 419.821 278.689 415.449 258.072C411.088 237.507 400.625 216.838 390.871 197.557L389.086 198.46Z" fill="black" fill-opacity="0.25" mask="url(#path-12-outside-1_25_2)"/>
<path d="M329.277 299.749C349.876 300.485 363.609 287.181 367.9 280.438" stroke="black" stroke-opacity="0.25"/>
<path fill-rule="evenodd" clip-rule="evenodd" d="M363.443 99.1545C360.621 102.846 358.082 108.653 359.619 115.829C361.488 114.495 364.448 112.928 367.681 112.191C375.841 153.042 339.199 196.469 284.354 210.122C228.306 224.074 174.473 201.648 164.114 160.033C163.029 155.675 162.464 151.279 162.386 146.884C188.606 120.285 223.128 120.251 254.319 120.221C286.487 120.189 315.112 120.161 327.433 91C335.526 92.4714 339.388 103.874 340.308 109.392C341.805 101.155 352.45 95.3569 361.316 94.9771C362.079 96.3403 362.789 97.733 363.443 99.1545Z" fill="#85C0A7"/>
<path fill-rule="evenodd" clip-rule="evenodd" d="M169.508 140.449C187.782 125.799 209.248 121.774 230.526 120.657C231.104 121.399 231.521 122.213 231.757 123.096C233.812 130.764 221.498 140.726 204.253 145.347C187.482 149.84 172.224 147.627 169.508 140.449Z" fill="#D9D9D9" fill-opacity="0.29"/>
<ellipse cx="257.721" cy="153.258" rx="34.1563" ry="15.316" transform="rotate(-15 257.721 153.258)" fill="#A1D0BC"/>
<path d="M220.764 186.638C215.246 140.658 266.744 140.658 284.217 136.98M360.543 113.07C359.624 130.543 347.669 139.739 354.106 173.764C360.543 207.789 384.453 221.583 374.337 265.724" stroke="black" stroke-opacity="0.25"/>
<path d="M305.433 131.886C305.159 131.85 304.908 132.043 304.872 132.317C304.836 132.591 305.028 132.842 305.302 132.878L305.433 131.886ZM339.812 104.794C339.812 112.366 334.152 119.516 326.92 124.617C323.317 127.157 319.356 129.166 315.581 130.443C311.799 131.722 308.241 132.256 305.433 131.886L305.302 132.878C308.318 133.275 312.04 132.697 315.902 131.39C319.771 130.081 323.818 128.028 327.496 125.434C334.824 120.266 340.812 112.855 340.812 104.794H339.812Z" fill="black" fill-opacity="0.25"/>
<ellipse cx="209.549" cy="264.506" rx="22" ry="50" fill="#D9D9D9"/>
<ellipse cx="243.549" cy="267.506" rx="22" ry="50" fill="#0C1820" fill-opacity="0.12"/>
<ellipse cx="241.549" cy="267.506" rx="20" ry="50" fill="#D9D9D9"/>
<ellipse cx="8.5" cy="21" rx="8.5" ry="21" transform="matrix(-1 0 0 1 243.549 244.506)" fill="#0C1820"/>
<ellipse cx="8.5" cy="21" rx="8.5" ry="21" transform="matrix(-1 0 0 1 211.549 243.506)" fill="#0D1921"/>

<!-- Name -->

<!-- <path d="M365.612 319.193C346.707 348.18 304.488 343.769 288.425 329.679C288.425 329.679 302.549 335.617 327.549 332.006C352.549 328.395 365.612 319.193 365.612 319.193Z" fill="white" fill-opacity="0.38"/>
<path d="M234.061 438.506V424.412H220.939V438.506H209.005V401.354H220.939V414.908H234.061V401.354H245.995V438.506H234.061ZM307.232 412.748C307.232 415.016 306.62 417.068 305.396 418.904C304.172 420.74 302.39 422.09 300.05 422.954L308.312 438.506H294.92L288.332 424.952H283.904V438.506H271.97V401.354H294.704C297.368 401.354 299.636 401.876 301.508 402.92C303.416 403.928 304.838 405.314 305.774 407.078C306.746 408.806 307.232 410.696 307.232 412.748ZM295.082 413.234C295.082 412.262 294.758 411.452 294.11 410.804C293.462 410.156 292.67 409.832 291.734 409.832H283.904V416.69H291.734C292.67 416.69 293.462 416.366 294.11 415.718C294.758 415.034 295.082 414.206 295.082 413.234ZM331.571 400.706C337.979 400.706 342.929 402.344 346.421 405.62C349.913 408.896 351.659 413.666 351.659 419.93C351.659 426.194 349.913 430.964 346.421 434.24C342.929 437.516 337.979 439.154 331.571 439.154C325.163 439.154 320.213 437.534 316.721 434.294C313.265 431.018 311.537 426.23 311.537 419.93C311.537 413.63 313.265 408.86 316.721 405.62C320.213 402.344 325.163 400.706 331.571 400.706ZM331.571 409.616C329.015 409.616 327.071 410.39 325.739 411.938C324.407 413.486 323.741 415.574 323.741 418.202V421.658C323.741 424.286 324.407 426.374 325.739 427.922C327.071 429.47 329.015 430.244 331.571 430.244C334.127 430.244 336.071 429.47 337.403 427.922C338.771 426.374 339.455 424.286 339.455 421.658V418.202C339.455 415.574 338.771 413.486 337.403 411.938C336.071 410.39 334.127 409.616 331.571 409.616Z" fill="white"/>
<path d="M253.609 406.646V399.356H264.355V406.646H253.609ZM253.609 438.506V409.994H264.355V438.506H253.609Z" fill="#82BD8D"/> -->
</g>
<defs>
<filter id="filter0_f_25_2" x="34" y="-13" width="486.549" height="468.828" filterUnits="userSpaceOnUse" color-interpolation-filters="sRGB">
<feFlood flood-opacity="0" result="BackgroundImageFix"/>
<feBlend mode="normal" in="SourceGraphic" in2="BackgroundImageFix" result="shape"/>
<feGaussianBlur stdDeviation="52" result="effect1_foregroundBlur_25_2"/>
</filter>
<radialGradient id="paint0_radial_25_2" cx="0" cy="0" r="1" gradientUnits="userSpaceOnUse" gradientTransform="translate(-75.4667 -33.4792) rotate(65.0355) scale(772.184)">
<stop stop-color="#00D643" stop-opacity="0.07"/>
<stop offset="1" stop-color="#2DC55C" stop-opacity="0"/>
</radialGradient>
<clipPath id="clip0_25_2">
<rect width="554" height="540" fill="white"/>
</clipPath>
</defs>
</svg>
